<svg width="15" height="9" viewBox="0 0 15 9" fill="none" xmlns="http://www.w3.org/2000/svg">
<path fill-rule="evenodd" clip-rule="evenodd" d="M12.2931 0.305288C12.3853 0.209778 12.4957 0.133595 12.6177 0.0811864C12.7397 0.0287774 12.8709 0.00119157 13.0037 3.77564e-05C13.1365 -0.00111606 13.2681 0.0241859 13.391 0.0744668C13.5139 0.124748 13.6256 0.199001 13.7195 0.292893C13.8134 0.386786 13.8876 0.498438 13.9379 0.621334C13.9882 0.744231 14.0135 0.87591 14.0123 1.00869C14.0112 1.14147 13.9836 1.27269 13.9312 1.39469C13.8788 1.5167 13.8026 1.62704 13.7071 1.71929L7.70707 7.71929C7.52484 7.90155 7.27927 8.00641 7.0216 8.012C6.76392 8.01759 6.51404 7.92348 6.32407 7.74929L0.324072 2.24929C0.128608 2.07 0.0123704 1.82041 0.000930667 1.55542C-0.00473371 1.42421 0.0155007 1.29317 0.060479 1.16978C0.105457 1.04639 0.174299 0.933073 0.263072 0.836289C0.351846 0.739504 0.458813 0.661153 0.577867 0.605708C0.696921 0.550263 0.825729 0.518811 0.956939 0.513146C1.22193 0.501707 1.48061 0.596001 1.67607 0.775288L6.97007 5.62829L12.2931 0.305288Z" fill="#848895"/>
</svg>
